<svg xmlns="http://www.w3.org/2000/svg" width="960" height="600" viewBox="0 0 960 600" role="img" aria-labelledby="title desc">
  <title id="title">Nemo app detail placeholder</title>
  <desc id="desc">Placeholder screenshot for the Nemo app detail view.</desc>
  <rect width="960" height="600" fill="#f6f7f9"/>
  <rect x="96" y="72" width="768" height="456" rx="16" fill="#ffffff" stroke="#d7dce2"/>
  <text x="136" y="132" font-family="Inter, ui-sans-serif, system-ui, sans-serif" font-size="28" font-weight="800" fill="#111827">api</text>
  <rect x="136" y="158" width="120" height="30" rx="15" fill="#dcfce7"/>
  <text x="196" y="179" font-family="Inter, ui-sans-serif, system-ui, sans-serif" font-size="13" font-weight="700" text-anchor="middle" fill="#166534">running</text>
  <rect x="656" y="112" width="168" height="40" rx="8" fill="#111827"/>
  <text x="740" y="137" font-family="Inter, ui-sans-serif, system-ui, sans-serif" font-size="14" font-weight="700" text-anchor="middle" fill="#ffffff">Refresh</text>
  <g fill="#ffffff" stroke="#d7dce2">
    <rect x="136" y="228" width="204" height="108" rx="10"/>
    <rect x="378" y="228" width="204" height="108" rx="10"/>
    <rect x="620" y="228" width="204" height="108" rx="10"/>
  </g>
  <g font-family="Inter, ui-sans-serif, system-ui, sans-serif" fill="#111827">
    <text x="160" y="268" font-size="13" fill="#6b7280">URLS</text>
    <text x="160" y="300" font-size="18" font-weight="800">2</text>
    <text x="402" y="268" font-size="13" fill="#6b7280">HTTPS</text>
    <text x="402" y="300" font-size="18" font-weight="800">active</text>
    <text x="644" y="268" font-size="13" fill="#6b7280">PROCESSES</text>
    <text x="644" y="300" font-size="18" font-weight="800">1</text>
  </g>
  <rect x="136" y="376" width="688" height="112" rx="10" fill="#111827"/>
  <g font-family="SFMono-Regular, ui-monospace, Menlo, monospace" font-size="13" fill="#d1d5db">
    <text x="160" y="412">2026-05-18T12:00:00Z app[web.1]: GET /health 200</text>
    <text x="160" y="440">2026-05-18T12:00:04Z app[web.1]: background job complete</text>
    <text x="160" y="468">Placeholder logs until real screenshots are captured</text>
  </g>
</svg>
