<svg xmlns="http://www.w3.org/2000/svg" width="960" height="600" viewBox="0 0 960 600" role="img" aria-labelledby="title desc">
  <title id="title">Nemo menu placeholder</title>
  <desc id="desc">Placeholder screenshot for the Nemo menu bar view.</desc>
  <rect width="960" height="600" fill="#f6f7f9"/>
  <rect x="200" y="64" width="560" height="472" rx="18" fill="#ffffff" stroke="#d7dce2"/>
  <rect x="200" y="64" width="560" height="56" rx="18" fill="#1f2937"/>
  <circle cx="232" cy="92" r="8" fill="#22c55e"/>
  <text x="256" y="99" font-family="Inter, ui-sans-serif, system-ui, sans-serif" font-size="20" font-weight="700" fill="#ffffff">Nemo</text>
  <text x="706" y="99" font-family="Inter, ui-sans-serif, system-ui, sans-serif" font-size="14" text-anchor="end" fill="#cbd5e1">Placeholder</text>
  <rect x="232" y="152" width="496" height="72" rx="10" fill="#ecfdf5" stroke="#bbf7d0"/>
  <circle cx="264" cy="188" r="10" fill="#16a34a"/>
  <text x="292" y="181" font-family="Inter, ui-sans-serif, system-ui, sans-serif" font-size="17" font-weight="700" fill="#111827">dokku-host.local</text>
  <text x="292" y="205" font-family="Inter, ui-sans-serif, system-ui, sans-serif" font-size="13" fill="#4b5563">Reachable, 6 apps discovered</text>
  <g fill="#ffffff" stroke="#d7dce2">
    <rect x="232" y="248" width="496" height="54" rx="8"/>
    <rect x="232" y="314" width="496" height="54" rx="8"/>
    <rect x="232" y="380" width="496" height="54" rx="8"/>
  </g>
  <g font-family="Inter, ui-sans-serif, system-ui, sans-serif" font-size="15" fill="#111827">
    <text x="256" y="282">api</text>
    <text x="256" y="348">web</text>
    <text x="256" y="414">worker</text>
  </g>
  <g font-family="Inter, ui-sans-serif, system-ui, sans-serif" font-size="13" fill="#4b5563" text-anchor="end">
    <text x="704" y="282">running</text>
    <text x="704" y="348">running</text>
    <text x="704" y="414">checking</text>
  </g>
  <rect x="232" y="470" width="180" height="34" rx="8" fill="#2563eb"/>
  <text x="322" y="492" font-family="Inter, ui-sans-serif, system-ui, sans-serif" font-size="14" font-weight="700" text-anchor="middle" fill="#ffffff">Pair a host</text>
</svg>
